<?xml version="1.0" encoding="iso-8859-1"?>
<!-- Generator: Adobe Illustrator 19.0.0, SVG Export Plug-In . SVG Version: 6.00 Build 0)  -->
<svg version="1.1" id="Layer_1" xmlns="http://www.w3.org/2000/svg" xmlns:xlink="http://www.w3.org/1999/xlink" x="0px" y="0px"
	 viewBox="0 0 512 512" style="enable-background:new 0 0 512 512;" xml:space="preserve">
<g>
	<g>
		<path d="M484.518,361.426c-2.309-30.007-4.617-60.015-6.925-90.022c-4.661-56.919-51.042-96.283-103.838-91.892
			c-78.409,5.425-157.098,5.425-235.508,0c-52.796-4.395-99.178,34.979-103.839,91.892c-2.309,30.007-4.616,60.015-6.925,90.022
			c-4.665,56.923,39.254,95.674,98.368,90.905c86.662-5.998,173.635-5.998,260.297,0
			C445.263,457.105,489.184,418.347,484.518,361.426z M205.363,305.162h-33.758v-45.011h33.758V305.162z M340.396,305.162h-33.758
			v-45.011h33.758V305.162z"/>
	</g>
</g>
<g>
	<g>
		<path d="M144.146,484.975C147.267,500.393,160.893,512,177.231,512c17.319,0,31.583-13.044,33.525-29.843
			C188.53,482.703,166.271,483.638,144.146,484.975z"/>
	</g>
</g>
<g>
	<g>
		<path d="M301.244,482.158C303.186,498.957,317.451,512,334.769,512c16.339,0,29.965-11.607,33.085-27.027
			C345.729,483.638,323.47,482.703,301.244,482.158z"/>
	</g>
</g>
<g>
	<g>
		<path d="M418.432,7.697c-15.565-15.566-51.005-4.3-74.055,5.575c10.24,5.768,19.951,12.555,28.967,20.309
			c15.984,13.749,29.313,30.094,39.512,48.176C422.731,58.707,433.999,23.263,418.432,7.697z"/>
	</g>
</g>
<g>
	<g>
		<path d="M93.568,7.696c-15.567,15.565-4.299,51.008,5.577,74.06c10.199-18.081,23.527-34.428,39.512-48.176
			c9.016-7.755,18.727-14.541,28.966-20.309C144.571,3.396,109.131-7.87,93.568,7.696z"/>
	</g>
</g>
<g>
	<g>
		<path d="M256,23.844c-72.839,0-133.235,53.239-144.421,122.924c6.088-0.888,12.313-1.348,18.646-1.348
			c3.503,0,7.057,0.144,10.566,0.43c38.178,2.637,76.941,3.973,115.208,3.973c38.273,0,77.034-1.338,115.218-3.974
			c3.505-0.285,7.054-0.429,10.553-0.429c6.334,0,12.561,0.46,18.65,1.349C389.235,77.084,328.84,23.844,256,23.844z
			 M216.615,130.745h-0.002c-12.408,0-22.503-10.096-22.503-22.505c0.004-12.412,10.1-22.505,22.505-22.505
			c12.409,0,22.505,10.096,22.505,22.505C239.121,120.649,229.025,130.745,216.615,130.745z M295.385,130.745h-0.002
			c-12.408,0-22.503-10.096-22.503-22.505c0.005-12.412,10.1-22.505,22.506-22.505c12.41,0,22.505,10.096,22.505,22.505
			C317.89,120.649,307.794,130.745,295.385,130.745z"/>
	</g>
</g>
<g>
</g>
<g>
</g>
<g>
</g>
<g>
</g>
<g>
</g>
<g>
</g>
<g>
</g>
<g>
</g>
<g>
</g>
<g>
</g>
<g>
</g>
<g>
</g>
<g>
</g>
<g>
</g>
<g>
</g>
</svg>
